<svg width="48" height="48" viewBox="0 0 48 48" fill="none" xmlns="http://www.w3.org/2000/svg">
<rect width="48" height="48" rx="24" fill="#F5FAFF"/>
<path d="M27.8976 17.451L25.1477 12.664C24.6371 11.7752 23.3563 11.771 22.8398 12.6564L19.938 17.6309C19.5537 18.2898 18.9056 18.7525 18.1576 18.9021L14.1926 19.6951C13.1657 19.9005 12.7656 21.1553 13.484 21.9172L16.3518 24.9588C16.965 25.6092 17.2116 26.5236 17.0084 27.3941L15.7104 32.9572C15.4436 34.1007 16.6784 35.0058 17.6886 34.4072L22.6409 31.4725C23.4791 30.9758 24.5216 30.9758 25.3598 31.4725L30.3121 34.4072C31.3223 35.0058 32.5571 34.1007 32.2903 32.9572L30.9809 27.3454C30.7841 26.5018 31.0092 25.6152 31.5847 24.9678L34.456 21.7376C35.1401 20.9679 34.7307 19.7463 33.721 19.5443L29.6869 18.7375C28.9329 18.5867 28.2806 18.1178 27.8976 17.451Z" stroke="#437EF7" stroke-width="2" stroke-miterlimit="10"/>
</svg>
