<svg width="48" height="48" viewBox="0 0 48 48" fill="none" xmlns="http://www.w3.org/2000/svg">
<rect width="48" height="48" rx="24" fill="#F5FAFF"/>
<path d="M24.0002 38.6666C32.1003 38.6666 38.6668 32.1001 38.6668 23.9999C38.6668 15.8997 32.1003 9.33325 24.0002 9.33325M24.0002 38.6666C15.9 38.6666 9.3335 32.1001 9.3335 23.9999C9.3335 15.8997 15.9 9.33325 24.0002 9.33325M24.0002 38.6666C26.9457 38.6666 29.3335 32.1001 29.3335 23.9999C29.3335 15.8997 26.9457 9.33325 24.0002 9.33325M24.0002 38.6666C21.0546 38.6666 18.6668 32.1001 18.6668 23.9999C18.6668 15.8997 21.0546 9.33325 24.0002 9.33325M10.6668 18.6666H37.3335M10.6668 27.9999H37.3335" stroke="#437EF7" stroke-width="2" stroke-linecap="round"/>
</svg>
